<?xml version="1.0" standalone="no"?>
<!DOCTYPE svg PUBLIC "-//W3C//DTD SVG 20010904//EN"
 "http://www.w3.org/TR/2001/REC-SVG-20010904/DTD/svg10.dtd">
<svg version="1.0" xmlns="http://www.w3.org/2000/svg"
 width="16.000000pt" height="16.000000pt" viewBox="0 0 16.000000 16.000000"
 preserveAspectRatio="xMidYMid meet">
<metadata>
Created by potrace 1.11, written by Peter Selinger 2001-2013
</metadata>
<g transform="translate(0.000000,16.000000) scale(0.003571,-0.003571)"
fill="#000000" stroke="none">
<path d="M1020 3050 c-32 -9 -15 -17 60 -28 39 -5 56 -12 58 -24 3 -13 -10
-19 -58 -29 -33 -6 -63 -16 -66 -20 -3 -5 -23 -9 -45 -9 -26 0 -46 -7 -59 -20
-11 -11 -27 -20 -35 -20 -9 0 -18 -7 -21 -15 -4 -8 -14 -15 -23 -15 -9 -1 -34
-8 -56 -16 -22 -9 -46 -16 -52 -16 -7 -1 -13 -5 -13 -9 0 -7 -63 -32 -82 -34
-4 0 -13 -6 -19 -12 -7 -7 -20 -13 -29 -13 -8 0 -26 -7 -38 -16 -12 -8 -22
-10 -22 -5 0 6 -9 2 -20 -9 -11 -11 -26 -20 -34 -20 -8 0 -21 -6 -28 -12 -20
-20 -94 -58 -111 -58 -8 0 -20 -7 -27 -15 -7 -9 -15 -13 -17 -11 -3 3 -14 -4
-26 -14 -17 -16 -23 -17 -36 -7 -12 10 -13 9 -6 -2 6 -11 4 -13 -8 -8 -10 4
-14 2 -11 -6 4 -11 -20 -15 -123 -16 -18 0 -33 -3 -33 -6 0 -16 32 -36 48 -31
15 5 17 -2 18 -64 0 -39 -3 -70 -7 -70 -3 0 -15 11 -25 25 -23 30 -54 33 -54
6 0 -11 5 -23 11 -27 8 -4 7 -9 -2 -15 -11 -7 -11 -9 -1 -9 8 0 10 -8 6 -24
-5 -21 -3 -23 22 -18 19 3 25 1 20 -7 -4 -6 -12 -9 -17 -6 -5 4 -9 2 -9 -4 0
-6 -6 -8 -14 -5 -16 6 -17 -27 -1 -38 6 -5 5 -8 -2 -8 -9 0 -13 -15 -13 -43 0
-23 -4 -57 -9 -74 -6 -20 -6 -35 0 -38 5 -4 9 -46 9 -96 l0 -89 35 0 c40 0 85
-25 85 -47 0 -8 4 -12 9 -8 5 3 12 -3 14 -12 4 -17 5 -17 6 0 1 15 4 16 23 6
30 -16 227 -22 245 -8 7 6 21 8 30 4 36 -14 63 -15 63 -3 0 8 3 9 8 3 4 -5 50
-10 102 -10 52 0 98 5 102 10 5 6 8 4 8 -4 0 -11 4 -10 19 3 18 17 20 17 30
-1 6 -10 11 -13 11 -6 0 6 -4 15 -10 18 -5 3 -10 14 -10 23 1 15 3 14 16 -3
l16 -20 -6 20 c-10 34 7 48 53 43 24 -2 41 1 41 7 0 5 5 3 10 -5 6 -10 10 -11
10 -2 0 17 25 15 41 -4 7 -9 13 -28 14 -42 0 -15 6 -28 13 -28 6 -1 13 -2 15
-4 8 -7 194 -4 205 3 6 5 12 6 12 1 0 -13 184 -8 209 5 17 10 22 9 27 -4 6
-15 25 -22 23 -7 -4 26 1 32 20 20 11 -7 18 -14 16 -18 -2 -3 54 -5 123 -4
l127 0 0 46 c0 26 -2 46 -5 45 -3 -1 -5 3 -5 8 0 6 2 9 5 8 3 -1 6 11 6 25 1
15 -1 21 -3 14 -3 -6 -10 -9 -16 -5 -7 4 -23 8 -37 9 -14 0 -24 6 -22 13 1 7
-2 10 -7 7 -5 -3 -15 1 -22 10 -11 14 -10 15 7 12 13 -2 19 3 20 17 1 11 2 32
3 47 0 17 8 29 22 33 20 7 21 32 0 28 -14 -4 -15 14 -1 22 6 4 8 14 6 23 -3
10 1 30 9 46 9 16 13 31 10 34 -3 3 -5 1 -5 -4 0 -4 -7 2 -16 14 -8 12 -20 20
-25 16 -6 -3 -8 5 -5 20 5 26 -1 30 -34 27 -12 -1 -11 1 3 12 9 8 17 17 17 20
0 7 -28 3 -36 -6 -4 -4 -14 2 -21 13 -11 15 -21 19 -41 14 -21 -4 -24 -3 -12
5 8 6 24 11 34 11 29 0 12 11 -26 16 -63 9 -88 7 -106 -10 -22 -19 -102 -22
-120 -4 -10 10 -15 10 -20 1 -4 -7 -16 -10 -27 -8 -11 2 -26 4 -33 4 -7 1 -10
6 -7 11 4 6 11 8 16 5 5 -4 9 0 9 7 0 9 3 9 8 2 4 -6 17 -7 32 -3 l25 7 -27 1
c-16 1 -28 7 -28 14 0 9 -3 8 -9 -2 -7 -11 -15 -11 -40 -3 -23 8 -30 8 -28 -1
1 -7 6 -15 11 -19 6 -4 5 -12 -1 -20 -8 -9 -12 -87 -13 -227 0 -128 -5 -220
-11 -230 -8 -13 -10 -12 -6 7 3 12 1 20 -3 17 -5 -3 -11 -19 -15 -35 -4 -17
-11 -28 -15 -25 -5 3 -5 17 0 31 13 33 13 32 -7 30 -15 -1 -19 8 -21 47 -2 26
-7 47 -13 47 -5 0 -9 6 -9 13 -1 19 -38 59 -50 52 -6 -4 -10 11 -10 39 0 40
-3 46 -21 46 -11 0 -17 5 -14 10 4 6 10 8 15 5 5 -3 12 0 16 6 5 8 3 9 -6 4
-10 -6 -11 -4 -6 11 5 10 10 28 12 39 l4 20 -9 -20 c-9 -18 -11 -16 -15 16 -1
15 -37 40 -47 33 -5 -3 -9 0 -9 5 0 6 11 11 25 11 14 0 25 -4 25 -10 0 -5 8
-10 17 -10 27 0 0 21 -38 29 -21 4 -33 13 -35 26 -2 11 -8 21 -13 23 -7 2 -8
10 -2 21 9 16 3 17 -62 13 -39 -2 -78 -9 -86 -15 -12 -10 -14 -9 -9 4 4 10 1
16 -8 16 -8 0 -13 -6 -10 -13 3 -8 1 -16 -4 -19 -6 -4 -10 -1 -10 5 0 6 -4 9
-9 6 -5 -4 -11 0 -14 6 -2 7 -4 1 -4 -15 0 -15 4 -30 9 -33 7 -4 6 -9 0 -13
-6 -4 -12 -28 -13 -54 -3 -45 -8 -55 -23 -40 -12 12 -43 13 -45 0 -1 -7 -5
-46 -9 -87 -4 -41 -11 -80 -15 -87 -9 -14 -37 -6 -37 9 0 6 8 7 17 3 15 -5 16
-4 5 7 -9 9 -17 10 -30 2 -13 -9 -17 -25 -16 -80 0 -38 -5 -72 -10 -76 -7 -5
-7 -8 2 -8 6 0 12 -4 12 -10 0 -5 -6 -7 -14 -4 -8 3 -17 1 -21 -5 -4 -7 -10
-7 -19 2 -8 6 -12 15 -9 20 2 4 -2 7 -10 7 -18 0 -25 17 -22 50 2 19 -1 26
-15 26 -10 0 -16 -4 -14 -8 6 -10 -10 -11 -20 -1 -12 13 -35 11 -40 -3 -3 -8
-13 -14 -23 -14 -16 0 -15 1 1 13 16 11 10 13 -38 12 -31 -1 -59 -5 -64 -9 -4
-4 10 -6 30 -5 20 2 40 0 44 -4 4 -4 -8 -7 -27 -7 -19 0 -46 -7 -61 -14 -15
-8 -30 -11 -33 -6 -3 5 4 11 14 15 20 6 20 6 0 26 -20 20 -30 24 -28 12 3 -21
-2 -34 -11 -28 -6 4 -7 11 -4 17 4 6 1 14 -6 18 -17 10 -5 40 15 40 8 0 15 -4
15 -10 0 -5 5 -10 11 -10 25 0 -14 30 -40 31 -22 0 -23 1 -7 8 14 5 16 10 8
15 -7 4 -12 12 -12 18 0 7 13 -1 29 -16 l30 -29 5 24 c3 13 4 35 3 49 -2 21 3
26 27 28 44 5 80 -6 67 -21 -16 -21 -9 -56 11 -54 10 1 18 5 18 10 0 5 6 4 14
-2 11 -9 18 -7 32 11 20 24 40 28 62 14 9 -5 12 -1 8 16 -2 13 3 29 10 36 8 7
14 9 14 4 0 -11 46 -9 57 2 4 5 2 6 -4 2 -7 -4 -13 -2 -13 3 0 6 5 11 11 11 8
0 9 4 0 13 -6 8 -8 17 -4 21 4 3 7 26 8 50 1 45 -7 50 -49 31 -20 -9 -36 7
-36 37 0 10 -9 23 -20 30 -11 7 -20 18 -20 25 0 19 10 16 31 -9 11 -11 19 -16
19 -10 0 14 -28 42 -43 43 -23 2 39 17 73 18 26 0 31 -2 20 -9 -13 -8 -13 -10
1 -10 19 0 42 24 32 33 -3 4 -1 7 5 7 6 0 23 -11 38 -25 14 -13 30 -22 34 -20
5 3 11 -1 13 -7 3 -8 6 -5 6 6 1 12 -4 16 -14 12 -8 -3 -15 -1 -15 4 0 6 9 10
20 10 11 0 20 4 20 10 0 6 -9 6 -26 0 -31 -12 -34 -12 -34 -2 0 4 18 13 41 19
33 9 39 8 35 -3 -3 -8 -1 -14 4 -14 6 0 10 8 10 18 0 14 2 15 10 2 7 -11 10
-11 10 -2 0 9 10 11 35 6 20 -3 41 -2 48 4 7 6 25 9 40 8 15 -2 27 1 27 5 0 5
5 9 11 9 5 0 7 -5 4 -10 -4 -7 16 -10 60 -8 37 1 69 6 72 10 2 5 10 5 16 1 17
-11 70 -11 84 0 8 6 25 3 48 -7 21 -10 53 -16 78 -14 41 3 42 4 43 38 2 57 3
60 19 54 9 -4 15 0 15 7 0 11 2 11 10 -1 8 -13 11 -13 22 -1 10 10 10 12 1 7
-16 -9 -17 10 -2 20 6 3 9 15 6 25 -3 11 0 19 6 19 7 0 13 11 13 25 2 23 -1
25 -50 27 l-51 1 45 4 c24 3 48 9 51 15 4 7 12 7 26 0 26 -14 39 -3 41 35 2
28 0 31 -20 26 -16 -4 -20 -2 -13 5 10 10 148 24 218 22 6 0 64 -1 127 -1 63
0 138 -1 165 -3 28 -2 75 -4 105 -5 l55 -1 -1 -55 c-1 -53 0 -55 25 -56 23 -2
24 -2 4 -6 -27 -5 -31 -33 -5 -33 10 0 22 3 26 7 4 4 30 8 59 9 40 2 45 1 22
-5 -28 -7 -26 -8 22 -15 58 -9 105 0 82 15 -11 7 -10 9 4 9 25 0 21 18 -5 22
-18 3 -16 5 10 9 27 5 31 3 27 -12 -5 -14 2 -18 45 -21 36 -2 50 1 50 10 0 7
5 10 11 7 6 -4 8 -13 6 -19 -6 -16 28 -37 48 -30 10 4 15 0 15 -13 0 -10 5
-24 12 -31 8 -8 8 -12 1 -12 -14 0 -34 25 -26 33 3 4 2 7 -4 7 -15 0 -25 -30
-10 -30 7 0 6 -4 -4 -10 -8 -5 -71 -11 -140 -13 -68 -3 -126 -6 -129 -8 -15
-7 -66 -4 -72 5 -5 7 -8 7 -8 -1 0 -15 -46 -17 -55 -3 -4 6 -19 9 -35 8 -20
-2 -26 -6 -22 -18 3 -8 2 -12 -3 -8 -4 4 -16 3 -26 -2 -14 -8 -19 -6 -24 10
-3 11 -11 20 -17 20 -7 0 -7 -4 1 -13 12 -16 5 -27 -18 -27 -14 0 -14 2 -1 10
13 8 12 10 -2 10 -10 0 -18 -7 -18 -15 0 -8 8 -15 19 -15 10 0 24 -6 30 -14
11 -13 18 -13 53 0 34 12 39 12 35 0 -4 -10 0 -12 15 -8 15 4 17 7 6 13 -9 6
-7 9 10 9 13 0 22 -6 22 -15 0 -21 17 -19 23 4 4 15 14 18 60 19 31 0 56 -3
56 -6 -4 -28 2 -33 23 -18 29 21 39 20 31 -1 -4 -14 -2 -13 10 3 11 14 28 21
52 22 36 1 36 1 15 -16 -21 -17 -21 -18 -2 -18 11 0 19 3 17 7 -3 3 6 12 19
19 29 15 67 5 59 -16 -5 -13 6 -15 63 -15 38 0 103 1 144 1 107 0 201 6 230
14 19 6 22 5 10 -3 -13 -9 -13 -11 2 -11 9 0 19 4 22 9 6 10 56 12 56 2 0 -3
55 -7 123 -8 141 -2 204 -11 172 -23 -19 -8 -19 -9 2 -9 12 -1 23 5 26 12 2 6
8 9 12 5 4 -4 2 -15 -6 -25 -12 -15 -12 -16 3 -11 9 4 19 1 21 -6 8 -20 59 -8
79 18 15 18 18 18 18 4 0 -9 -4 -19 -10 -23 -5 -3 -7 -12 -3 -20 4 -12 -9 -15
-73 -15 -86 0 -128 -14 -81 -25 15 -4 60 -6 101 -3 58 2 72 0 68 -10 -3 -10
-32 -13 -122 -10 -66 1 -116 7 -113 12 3 5 0 7 -8 4 -17 -6 -38 13 -32 28 2 6
-3 11 -11 11 -8 0 -13 -4 -10 -9 3 -4 1 -8 -5 -8 -5 0 -11 5 -13 12 -3 9 -6 9
-12 0 -4 -7 0 -15 11 -20 19 -8 29 -32 13 -32 -5 0 -10 5 -10 10 0 6 -4 10 -9
10 -5 0 -10 -78 -11 -180 -1 -156 1 -180 15 -180 12 0 15 -15 15 -83 0 -73 -2
-84 -21 -96 -19 -11 -21 -11 -16 3 4 9 -1 19 -11 25 -16 9 -15 11 1 28 9 11
17 23 17 28 0 5 -6 0 -14 -10 -13 -18 -13 -17 -13 8 0 14 2 25 6 24 3 -1 6 3
6 8 0 6 -3 9 -7 7 -11 -3 -10 10 2 28 8 12 10 12 10 1 0 -8 2 -12 5 -9 9 9 -6
38 -19 37 -41 -5 -74 3 -79 19 -2 9 -8 26 -13 37 -7 18 -6 18 9 6 9 -7 17 -10
18 -5 6 50 5 93 -2 88 -5 -3 -9 0 -9 6 0 6 -8 9 -18 6 -22 -7 -69 28 -52 39
10 6 8 34 -6 69 -4 11 -4 17 2 14 5 -4 9 4 9 16 0 13 -6 23 -13 23 -7 0 -12
-7 -11 -16 1 -9 -1 -24 -6 -34 -6 -15 -10 -16 -16 -5 -12 18 -11 30 2 22 8 -4
7 0 -1 15 -6 12 -15 19 -21 16 -8 -6 -14 16 -10 38 1 5 -4 5 -10 1 -7 -4 -44
-8 -82 -10 -60 -2 -73 -6 -98 -30 -26 -25 -34 -25 -30 -1 0 4 -3 7 -9 7 -11 0
-6 -51 10 -79 6 -12 7 -21 1 -21 -5 0 -12 6 -14 13 -3 7 -6 5 -6 -5 -1 -10 5
-18 12 -18 9 0 9 -2 -1 -9 -8 -4 -13 -11 -13 -15 3 -19 0 -26 -13 -26 -7 0
-21 -12 -31 -26 -12 -18 -20 -23 -25 -15 -4 7 -6 -17 -6 -53 1 -54 -2 -67 -15
-71 -18 -6 -29 -34 -29 -73 0 -13 -4 -21 -8 -18 -10 6 -8 50 3 81 6 19 6 19
-8 3 -15 -19 -37 -24 -37 -9 0 5 6 12 13 14 9 4 9 6 0 6 -7 1 -17 -8 -23 -19
-6 -11 -15 -18 -21 -14 -6 4 -6 11 2 20 10 12 9 13 -5 8 -9 -3 -16 -10 -16
-16 0 -5 -5 -6 -10 -3 -6 4 -8 10 -6 14 3 4 -13 7 -33 6 -25 0 -37 -4 -34 -12
3 -7 -3 -10 -15 -6 -15 3 -20 0 -19 -13 2 -12 -7 -18 -27 -21 -27 -4 -28 -2
-22 24 5 23 4 25 -4 10 -9 -14 -15 -15 -31 -6 -12 6 -32 8 -45 5 -14 -4 -24
-2 -24 4 0 5 10 10 23 11 21 0 21 1 2 8 -11 5 -23 4 -26 -2 -11 -17 -30 4 -23
25 4 14 2 18 -5 14 -6 -4 -11 -3 -11 3 0 21 21 21 29 -1 11 -25 11 -25 16 14
2 19 0 25 -10 22 -7 -3 -16 -1 -20 5 -6 10 8 16 29 12 5 -1 4 4 -3 12 -9 12
-9 16 1 20 10 4 10 6 0 6 -10 1 -10 4 2 16 10 11 36 15 90 15 76 0 81 -3 77
-39 -2 -7 2 -10 8 -7 5 4 12 2 16 -4 3 -5 1 -10 -4 -10 -6 0 -11 -4 -11 -10 0
-5 15 1 34 13 18 12 29 25 24 28 -8 5 20 37 35 38 4 1 8 4 9 9 0 4 8 12 17 19
12 9 18 9 24 0 4 -7 5 1 3 16 -3 16 -11 36 -18 45 -11 13 -11 15 3 10 12 -5
15 -1 13 19 -4 35 -13 41 -29 19 -14 -19 -52 -15 -40 4 3 5 1 10 -5 10 -6 0
-8 5 -4 13 6 9 4 9 -8 -1 -17 -14 -51 -6 -41 11 4 6 -3 8 -21 3 -16 -4 -25 -3
-22 3 7 10 -40 25 -54 16 -5 -3 -12 0 -15 5 -4 7 -20 9 -38 5 -29 -6 -30 -6
-14 7 16 12 12 14 -42 13 -58 0 -59 -1 -43 -19 16 -18 16 -19 0 -13 -13 5 -16
1 -12 -19 3 -17 0 -24 -11 -24 -8 0 -15 -7 -15 -15 0 -8 -4 -15 -8 -15 -14 0
-52 -36 -52 -50 0 -6 -5 -10 -11 -8 -6 2 -24 -8 -39 -22 -22 -20 -26 -32 -23
-60 5 -43 5 -62 0 -120 -3 -25 -2 -39 0 -32 3 6 9 9 14 6 6 -3 5 -12 -3 -21
-14 -17 -18 -114 -5 -106 5 3 6 11 3 19 -3 8 -1 14 3 14 13 0 22 -30 14 -43
-4 -7 1 -6 10 2 10 8 17 9 17 3 0 -6 -8 -16 -17 -22 -14 -8 -14 -10 -3 -9 32
3 51 -1 45 -11 -3 -5 -1 -10 4 -10 6 0 11 5 11 11 0 6 9 1 19 -12 21 -26 20
-39 -2 -21 -9 8 -17 8 -27 0 -12 -8 -11 -9 3 -4 12 4 17 2 14 -6 -2 -7 -11
-12 -18 -10 -8 2 -10 0 -6 -4 12 -12 60 -13 75 -1 9 7 20 7 35 -1 25 -13 231
-11 261 3 13 6 17 5 13 -2 -5 -7 38 -10 132 -9 76 0 137 4 134 9 -2 4 5 7 16
7 11 0 23 -5 26 -10 12 -19 23 0 21 35 l-3 35 89 0 c69 0 87 -3 82 -12 -5 -8
0 -7 11 2 17 14 18 13 12 -3 -4 -10 -7 -26 -8 -35 0 -14 -2 -13 -9 3 -7 15 -9
16 -9 4 -1 -25 26 -44 42 -30 8 6 16 8 20 5 7 -8 177 -11 177 -3 0 3 7 6 15 6
8 0 15 -3 15 -6 0 -3 40 -6 90 -6 83 0 95 4 91 28 0 4 6 7 14 7 20 0 19 10 -1
25 -14 10 -8 12 35 14 35 1 57 -4 67 -14 11 -11 12 -15 3 -15 -8 0 -5 -7 7
-16 13 -11 14 -14 3 -11 -9 3 -16 0 -16 -7 0 -8 95 -11 368 -11 l367 0 -4 23
c-3 12 -2 22 1 22 3 0 9 -10 14 -22 7 -19 9 -17 8 14 -1 29 -4 35 -14 26 -10
-8 -13 0 -13 40 0 40 4 54 19 61 25 14 38 -3 44 -54 l4 -40 1 43 c2 42 7 46
50 45 21 -1 13 8 -18 18 l-30 11 23 18 c26 22 35 18 16 -7 -13 -16 -12 -17 4
-4 9 7 17 26 17 42 0 16 4 29 9 29 5 0 8 -12 5 -26 -4 -24 -4 -25 12 -10 9 10
23 15 31 12 8 -3 12 -2 9 3 -3 4 3 16 13 25 11 10 22 29 26 44 3 14 9 22 13
16 12 -16 28 -13 30 4 1 9 4 33 8 53 3 22 2 39 -5 43 -6 4 -11 15 -11 24 0 13
2 14 9 3 5 -8 8 18 8 68 0 62 -3 78 -12 71 -9 -8 -15 -6 -19 6 -4 10 -1 21 6
27 9 6 6 7 -9 4 -28 -6 -52 20 -48 54 3 27 -20 37 -29 12 -10 -26 -22 -12 -25
29 -3 50 -11 65 -11 20 0 -25 -4 -32 -20 -32 -21 0 -62 29 -55 40 2 3 -8 7
-22 8 -35 3 -43 12 -12 13 57 1 56 15 -1 15 -34 0 -54 -3 -45 -6 14 -5 12 -8
-11 -19 -24 -11 -31 -10 -57 10 -17 12 -27 17 -23 10 4 -6 1 -11 -8 -11 -8 0
-18 5 -21 10 -3 6 -12 10 -18 10 -7 0 -6 -4 3 -10 13 -8 12 -10 -2 -10 -10 0
-18 4 -18 9 0 4 -11 7 -25 6 -36 -4 -63 5 -68 23 -3 10 -8 25 -12 35 -4 10 -3
17 3 17 6 0 12 -6 15 -12 2 -8 3 -7 3 2 -2 19 -82 22 -98 3 -7 -9 -7 -13 1
-13 6 0 11 5 11 10 0 6 5 10 10 10 6 0 10 -9 10 -19 0 -11 5 -23 10 -26 6 -3
10 -11 10 -16 0 -6 -6 -7 -12 -2 -7 4 -19 8 -27 10 -8 1 -17 7 -21 13 -6 9 -9
9 -14 -1 -3 -8 -4 -3 -2 10 l5 23 -20 -21 c-24 -26 -36 -27 -42 -3 -4 16 -5
16 -6 0 0 -10 -6 -18 -12 -18 -6 0 -8 7 -5 16 5 13 1 15 -18 12 -14 -3 -31 -1
-38 3 -10 7 -10 9 2 9 12 0 12 2 2 9 -13 8 -194 5 -219 -4 -7 -2 -13 0 -13 5
0 6 -5 10 -11 10 -6 0 -9 -5 -7 -12 3 -9 30 -11 90 -9 49 1 88 -2 92 -7 4 -6
-9 -8 -34 -5 -28 4 -40 2 -40 -7 0 -21 -117 -8 -135 16 -13 16 -14 16 -9 2 6
-17 -6 -18 -150 -18 -97 0 -156 4 -156 10 0 6 5 10 10 10 6 0 10 3 10 8 0 4
-21 7 -48 8 -26 0 -40 -1 -30 -3 25 -6 32 -33 8 -33 -36 0 -120 22 -115 30 3
4 -1 10 -9 13 -7 3 -13 17 -13 32 0 33 -2 34 -36 28 -19 -4 -26 -10 -23 -19 5
-14 -10 -20 -16 -6 -1 4 -21 16 -43 27 -22 11 -42 22 -45 25 -3 3 -23 14 -44
25 -26 13 -34 21 -23 23 9 2 27 -4 39 -12 30 -21 55 -22 34 -1 -8 8 -22 15
-30 15 -9 0 -16 6 -16 14 0 11 -17 14 -70 15 -38 0 -77 5 -87 10 -17 9 -52 23
-63 25 -3 1 -11 5 -19 10 -11 7 -11 10 0 17 10 6 10 9 2 9 -6 0 -15 -5 -18
-10 -4 -6 -15 -8 -26 -5 -10 4 -31 8 -45 11 -15 3 -34 9 -43 13 -9 5 -43 12
-76 16 -33 3 -64 10 -69 15 -5 5 -15 6 -24 3 -9 -4 -13 -2 -9 4 16 25 -78 44
-164 33 -27 -4 -49 -2 -49 3 0 10 -367 7 -436 -3 -26 -4 -44 -3 -44 3 0 5 -19
6 -47 2 -43 -6 -224 -10 -248 -5 -23 5 -46 -1 -40 -10 3 -5 0 -10 -9 -10 -8 0
-16 4 -18 9 -4 13 -48 19 -78 11z"/>
<path d="M820 3040 c0 -5 9 -10 20 -10 11 0 20 5 20 10 0 6 -9 10 -20 10 -11
0 -20 -4 -20 -10z"/>
<path d="M2548 3043 c6 -2 18 -2 25 0 6 3 1 5 -13 5 -14 0 -19 -2 -12 -5z"/>
<path d="M2272 3021 c-11 -7 -10 -10 3 -15 28 -10 53 -7 59 9 4 11 -2 15 -22
15 -15 0 -33 -4 -40 -9z"/>
<path d="M878 3009 c-10 -5 -18 -16 -18 -23 0 -8 -9 -16 -20 -19 -14 -3 -20
-14 -20 -31 0 -31 15 -34 30 -6 6 11 15 20 21 20 5 0 28 12 50 27 35 23 38 28
23 34 -27 11 -46 10 -66 -2z"/>
<path d="M820 2994 c0 -9 5 -14 12 -12 18 6 21 28 4 28 -9 0 -16 -7 -16 -16z"/>
<path d="M980 2991 c0 -24 15 -35 36 -27 12 4 13 10 4 26 -14 26 -40 26 -40 1z"/>
<path d="M2560 2980 c0 -5 7 -10 15 -10 8 0 15 5 15 10 0 6 -7 10 -15 10 -8 0
-15 -4 -15 -10z"/>
<path d="M2485 2950 c3 -5 15 -10 26 -10 11 0 17 5 14 10 -3 6 -15 10 -26 10
-11 0 -17 -4 -14 -10z"/>
<path d="M2750 2884 c0 -11 8 -14 27 -12 39 4 42 28 4 28 -21 0 -31 -5 -31
-16z"/>
<path d="M2850 2850 c-18 -14 -20 -20 -9 -20 20 0 69 23 69 33 0 14 -35 6 -60
-13z"/>
<path d="M665 2840 c-3 -5 -16 -10 -28 -10 -13 0 -18 -3 -11 -10 13 -13 54 -1
54 16 0 16 -6 18 -15 4z"/>
<path d="M2796 2811 c-3 -5 1 -11 9 -15 9 -3 15 0 15 9 0 16 -16 20 -24 6z"/>
<path d="M580 2790 c-9 -6 -10 -10 -3 -10 6 0 15 5 18 10 8 12 4 12 -15 0z"/>
<path d="M535 2780 c-3 -5 -2 -10 4 -10 5 0 13 5 16 10 3 6 2 10 -4 10 -5 0
-13 -4 -16 -10z"/>
<path d="M1433 2783 c-18 -6 -16 -33 1 -33 19 0 31 19 20 30 -5 4 -15 5 -21 3z"/>
<path d="M2378 2733 c12 -2 32 -2 45 0 12 2 2 4 -23 4 -25 0 -35 -2 -22 -4z"/>
<path d="M2955 2721 c11 -4 36 -11 55 -15 24 -4 29 -3 15 3 -11 4 -36 11 -55
15 -24 4 -29 3 -15 -3z"/>
<path d="M3730 2720 c0 -5 5 -10 10 -10 6 0 10 5 10 10 0 6 -4 10 -10 10 -5 0
-10 -4 -10 -10z"/>
<path d="M3770 2718 c0 -9 5 -20 10 -23 13 -8 13 5 0 25 -8 13 -10 13 -10 -2z"/>
<path d="M275 2700 c-3 -5 1 -10 9 -10 9 0 16 5 16 10 0 6 -4 10 -9 10 -6 0
-13 -4 -16 -10z"/>
<path d="M3198 2703 c34 -2 90 -2 125 0 34 2 6 3 -63 3 -69 0 -97 -1 -62 -3z"/>
<path d="M343 2685 c0 -8 4 -12 9 -9 5 3 6 10 3 15 -9 13 -12 11 -12 -6z"/>
<path d="M2006 2638 c3 -5 10 -6 15 -3 13 9 11 12 -6 12 -8 0 -12 -4 -9 -9z"/>
<path d="M4120 2640 c8 -5 20 -10 25 -10 6 0 3 5 -5 10 -8 5 -19 10 -25 10 -5
0 -3 -5 5 -10z"/>
<path d="M4280 2616 c0 -2 7 -9 15 -16 12 -10 15 -10 15 4 0 9 -7 16 -15 16
-8 0 -15 -2 -15 -4z"/>
<path d="M2161 2584 c0 -11 3 -14 6 -6 3 7 2 16 -1 19 -3 4 -6 -2 -5 -13z"/>
<path d="M2184 2588 c1 -7 16 -14 32 -15 24 -2 26 0 11 8 -9 6 -21 8 -26 4 -5
-3 -12 0 -14 5 -3 6 -4 5 -3 -2z"/>
<path d="M2357 2593 c-4 -3 -7 -11 -7 -17 0 -6 5 -5 12 2 6 6 9 14 7 17 -3 3
-9 2 -12 -2z"/>
<path d="M2458 2593 c7 -3 16 -2 19 1 4 3 -2 6 -13 5 -11 0 -14 -3 -6 -6z"/>
<path d="M1946 2579 c3 -5 12 -9 21 -9 19 0 9 13 -12 16 -8 1 -13 -2 -9 -7z"/>
<path d="M724 2525 c-3 -8 -4 -20 -2 -27 3 -7 7 -1 10 15 6 29 1 36 -8 12z"/>
<path d="M20 2500 c0 -23 4 -30 20 -30 23 0 27 25 6 46 -21 21 -26 18 -26 -16z"/>
<path d="M3308 2523 c7 -3 16 -2 19 1 4 3 -2 6 -13 5 -11 0 -14 -3 -6 -6z"/>
<path d="M598 2513 c7 -3 16 -2 19 1 4 3 -2 6 -13 5 -11 0 -14 -3 -6 -6z"/>
<path d="M3305 2500 c3 -5 8 -10 11 -10 2 0 4 5 4 10 0 6 -5 10 -11 10 -5 0
-7 -4 -4 -10z"/>
<path d="M3330 2499 c0 -5 5 -7 10 -4 6 3 10 8 10 11 0 2 -4 4 -10 4 -5 0 -10
-5 -10 -11z"/>
<path d="M548 2493 c7 -3 16 -2 19 1 4 3 -2 6 -13 5 -11 0 -14 -3 -6 -6z"/>
<path d="M1410 2479 l-55 -6 55 -3 55 -3 -55 -7 -55 -7 51 -1 c27 -1 54 2 60
7 5 5 18 11 29 13 39 8 -27 13 -85 7z"/>
<path d="M1520 2486 c0 -2 7 -7 16 -10 8 -3 12 -2 9 4 -6 10 -25 14 -25 6z"/>
<path d="M2295 2479 c-14 -6 -10 -7 15 -3 26 4 31 3 20 -5 -8 -6 -10 -11 -5
-12 6 -1 24 -3 40 -5 30 -3 30 -3 6 10 -17 10 -20 15 -10 18 8 3 1 5 -16 5
-16 1 -39 -3 -50 -8z"/>
<path d="M2686 2475 c4 -8 8 -15 10 -15 2 0 4 7 4 15 0 8 -4 15 -10 15 -5 0
-7 -7 -4 -15z"/>
<path d="M2715 2480 c-3 -5 -1 -10 4 -10 6 0 11 5 11 10 0 6 -2 10 -4 10 -3 0
-8 -4 -11 -10z"/>
<path d="M2785 2479 l-50 -6 52 -1 c30 -1 54 -7 57 -14 5 -10 7 -10 12 -1 3 7
13 9 22 6 14 -6 15 -5 2 9 -8 9 -17 12 -18 7 -2 -6 -9 -6 -15 -2 -7 5 -34 6
-62 2z"/>
<path d="M3236 2479 c3 -5 -3 -9 -13 -10 -10 0 -13 -3 -7 -5 6 -3 21 -1 34 4
l24 9 -22 5 c-12 4 -20 2 -16 -3z"/>
<path d="M1570 2470 c-8 -5 -10 -10 -5 -10 6 0 17 5 25 10 8 5 11 10 5 10 -5
0 -17 -5 -25 -10z"/>
<path d="M2710 2440 c-12 -12 -19 -24 -17 -27 3 -2 15 5 27 17 12 12 19 24 17
27 -3 2 -15 -5 -27 -17z"/>
<path d="M2778 2453 c12 -2 30 -2 40 0 9 3 -1 5 -23 4 -22 0 -30 -2 -17 -4z"/>
<path d="M2666 2435 c-3 -8 -1 -15 3 -15 5 0 11 7 15 15 3 8 1 15 -3 15 -5 0
-11 -7 -15 -15z"/>
<path d="M2023 2382 c0 -14 2 -21 5 -15 4 5 15 12 25 16 22 8 14 26 -11 24
-11 0 -18 -10 -19 -25z"/>
<path d="M1751 2314 c9 -12 10 -23 2 -47 -15 -44 -11 -92 6 -92 8 0 16 7 18
15 4 13 3 13 -6 0 -9 -13 -11 -13 -11 3 0 9 5 17 10 17 6 0 10 4 10 10 0 5 -7
7 -15 4 -10 -4 -15 0 -15 11 0 9 4 14 8 11 10 -6 14 31 7 62 -3 12 -10 22 -16
22 -8 0 -7 -5 2 -16z"/>
<path d="M1943 2312 c0 -7 7 -10 14 -7 8 3 17 5 19 5 2 0 4 4 4 8 0 4 -8 8
-18 8 -10 0 -19 -6 -19 -14z"/>
<path d="M2470 2276 c0 -2 8 -10 18 -17 15 -13 16 -12 3 4 -13 16 -21 21 -21
13z"/>
<path d="M2587 2239 c7 -7 15 -10 18 -7 3 3 -2 9 -12 12 -14 6 -15 5 -6 -5z"/>
<path d="M450 2189 c0 -5 -4 -7 -10 -4 -5 3 -10 2 -10 -3 0 -5 16 -9 35 -8 31
1 33 3 18 14 -21 15 -33 15 -33 1z"/>
<path d="M2390 2185 c-9 -10 -9 -15 -1 -15 6 0 11 5 11 11 0 5 5 7 12 3 7 -4
8 -3 4 4 -9 15 -11 15 -26 -3z"/>
<path d="M1125 2160 c-3 -5 -2 -18 4 -27 7 -14 9 -12 8 10 -2 30 -3 31 -12 17z"/>
<path d="M4400 2111 c0 -6 4 -13 10 -16 6 -3 7 1 4 9 -7 18 -14 21 -14 7z"/>
<path d="M1720 2100 c0 -5 9 -10 21 -10 11 0 17 5 14 10 -3 6 -13 10 -21 10
-8 0 -14 -4 -14 -10z"/>
<path d="M2306 2081 c-4 -5 3 -7 14 -4 23 6 26 13 6 13 -8 0 -17 -4 -20 -9z"/>
<path d="M2285 2050 c-3 -6 1 -7 9 -4 18 7 21 14 7 14 -6 0 -13 -4 -16 -10z"/>
<path d="M4324 2049 c-3 -6 -2 -15 3 -20 5 -5 9 -1 9 11 0 23 -2 24 -12 9z"/>
<path d="M4234 1880 c1 -31 11 -31 19 -1 2 11 -1 22 -8 24 -8 4 -12 -4 -11
-23z"/>
<path d="M100 1889 c0 -5 5 -7 10 -4 6 3 10 1 10 -4 0 -6 -6 -11 -12 -11 -7 0
-5 -5 5 -11 24 -14 31 -6 17 20 -11 22 -30 28 -30 10z"/>
<path d="M1614 1769 c-3 -5 -2 -9 1 -9 4 0 0 -7 -9 -15 -8 -8 -24 -15 -36 -15
-12 0 -37 -16 -56 -35 l-34 -35 0 35 c0 19 -4 35 -10 35 -5 0 -10 -11 -10 -25
l0 -25 -719 0 c-563 0 -721 -3 -729 -12 -6 -7 -10 -24 -9 -38 l2 -25 727 3
c487 1 728 -1 728 -8 0 -6 -245 -11 -727 -12 -636 -3 -727 -5 -730 -18 -3 -11
-2 -12 4 -2 12 16 1454 13 1460 -3 2 -7 -221 -9 -660 -7 -710 2 -798 -1 -803
-32 -1 -10 -1 -23 2 -30 3 -8 191 -10 723 -8 l720 2 3 -22 c3 -21 8 -23 78
-24 96 -1 102 -2 95 -14 -4 -6 43 -10 134 -10 119 0 141 2 141 15 0 8 5 15 10
15 6 0 10 -7 10 -15 0 -21 248 -22 256 -1 9 23 44 26 65 5 18 -18 35 -19 235
-19 142 0 223 4 237 11 16 9 22 9 25 0 3 -8 127 -11 463 -11 430 0 459 1 459
18 1 16 1 16 14 0 11 -15 29 -18 98 -18 46 0 88 4 94 9 16 15 72 21 77 8 7
-18 249 -23 245 -6 -4 16 50 28 78 18 12 -4 25 -5 28 -2 11 11 6 43 -6 43 -8
0 -13 15 -13 40 0 25 5 40 13 40 13 0 17 36 4 44 -11 6 -28 -5 -35 -24 -4 -12
-6 -11 -6 3 -1 20 -51 25 -51 5 0 -10 -2 -10 -9 0 -4 8 -6 42 -3 77 4 55 2 64
-14 68 -18 4 -18 5 -1 6 10 0 17 6 15 13 -3 7 -40 12 -111 13 -91 2 -107 0
-110 -14 -4 -14 -5 -14 -6 2 -1 18 -35 24 -46 7 -4 -6 -13 -5 -26 3 -16 10
-21 9 -29 -3 -9 -13 -10 -13 -10 0 -1 12 -3 12 -14 -2 -15 -21 -27 -23 -24 -5
4 16 -98 13 -118 -4 -11 -9 -14 -9 -14 0 0 7 -6 11 -12 10 -7 -1 -21 1 -32 6
-12 5 -21 3 -27 -6 -6 -9 -9 -10 -9 -2 0 8 -24 11 -80 10 -44 0 -80 -5 -80
-10 0 -4 -4 -6 -9 -2 -6 3 -14 -3 -20 -12 -10 -17 -10 -17 -11 0 0 21 -18 23
-26 2 -4 -8 -15 -15 -25 -15 -11 0 -16 5 -13 14 6 16 -22 29 -39 19 -7 -4 -20
-6 -29 -5 -11 2 -18 -3 -18 -12 0 -9 -4 -16 -10 -16 -5 0 -7 7 -4 15 4 10 0
15 -15 15 -12 0 -21 -6 -21 -12 0 -9 -3 -9 -9 1 -5 8 -16 11 -24 8 -8 -3 -18
-3 -22 1 -10 11 -148 11 -167 1 -12 -6 -18 -6 -18 1 0 18 -48 11 -53 -7 -4
-17 -5 -17 -6 0 0 9 -5 17 -11 17 -5 0 -10 -8 -10 -17 0 -15 -2 -15 -9 -4 -14
22 -169 23 -174 2 -4 -13 -5 -13 -6 2 -1 19 -18 22 -41 7 -9 -5 -19 -5 -27 2
-9 7 -17 7 -27 -1 -10 -8 -16 -9 -21 -1 -10 16 -33 12 -38 -7 -4 -17 -5 -17
-6 0 -1 18 -31 25 -31 7 0 -7 -6 -7 -20 0 -19 10 -76 9 -95 -2 -12 -7 -47 -4
-60 4 -21 13 -84 4 -88 -11 -4 -13 -5 -12 -6 2 -1 19 -31 24 -31 5 0 -9 -3
-10 -8 -2 -4 6 -25 9 -47 7 -22 -2 -55 -3 -72 -3 -18 0 -33 -5 -33 -11 0 -8
-5 -8 -15 1 -8 7 -22 9 -31 6 -9 -4 -23 -1 -31 6 -12 10 -18 9 -29 -7 -12 -17
-14 -17 -14 -2 0 9 -7 17 -15 17 -8 0 -15 -6 -15 -12 0 -9 -3 -9 -9 1 -8 12
-16 13 -45 4 -20 -6 -36 -8 -36 -3 0 10 -179 9 -186 -1z"/>
<path d="M1500 1760 c0 -5 18 -10 40 -10 22 0 40 5 40 10 0 6 -18 10 -40 10
-22 0 -40 -4 -40 -10z"/>
<path d="M4314 1606 c-3 -8 0 -25 7 -37 l12 -23 9 24 c10 26 4 50 -12 50 -6 0
-13 -6 -16 -14z"/>
<path d="M4300 1530 c0 -19 3 -21 12 -12 9 9 9 15 0 24 -9 9 -12 7 -12 -12z"/>
<path d="M4320 1487 c-10 -21 -11 -30 -2 -39 20 -20 36 5 24 39 l-9 28 -13
-28z"/>
</g>
</svg>
